<?xml version="1.0" encoding="UTF-8"?>
<svg id="Layer_1" data-name="Layer 1" xmlns="http://www.w3.org/2000/svg" viewBox="0 0 400 400">
  <defs>
    <style>
      .cls-1 {
        stroke-width: 0px;
        fill: currentColor;
      }
    </style>
  </defs>
  <g>
    <g>
      <path class="cls-1" d="m154.03,204.3l.07-.09-67.96,62.19c4.27,8.12-2.38,32.47-2.38,32.47l-.07.09s21.39-13.39,30.4-11.64l39.95-83.01Z"/>
      <path class="cls-1" d="m106.24,188.52c1.67,20.6-5.47,29.85-8.64,33.18-3.27,3.44-9.27,6.18-21.15,11.51-19.88,8.93-21.29,7.65-27.2,11.96-2.47,1.81-18.29,13.36-18.97,31.69-.53,14.36,8.49,25.75,18.25,30.89,2.58,1.36,7.2,3.9,13.28,3.68,12.72-.45,25.56-12.56,32.71-30.15l-4.84-13.5c-.3,1.76-.89,4.32-2.12,7.24-1.35,3.2-6.05,14.33-15.07,15.88-6.47,1.12-11.34-3.35-11.95-3.93-5.01-4.74-6.17-12.85-4.09-19.13,2.08-6.3,9.9-11.6,25.45-21.93,6.78-4.5,7.61-4.65,11.39-7.62,5.78-4.56,12.93-10.19,16.43-17.49,6.69-13.93-1.96-29.63-3.47-32.29Z"/>
      <path class="cls-1" d="m181.49,247.62c-20.21,4.34-27,13.85-29.28,17.84-2.35,4.12-3.24,10.66-4.93,23.57-2.82,21.61-1.18,22.59-3.61,29.5-1.02,2.89-7.52,21.37-24.87,27.31-13.6,4.65-27.1-.71-34.84-8.56-2.05-2.08-5.81-5.77-7.36-11.66-3.24-12.3,4.66-28.1,19.44-40.01l14.32.75c-1.6.79-3.88,2.09-6.32,4.12-2.68,2.22-11.97,9.92-10.86,19.01.8,6.52,6.48,9.89,7.21,10.31,5.99,3.43,14.09,2.2,19.5-1.6,5.44-3.81,8.25-12.82,13.66-30.69,2.36-7.79,2.25-8.63,4.02-13.1,2.69-6.85,6.03-15.32,12.01-20.78,11.41-10.42,28.94-6.67,31.92-5.98Z"/>
      <path class="cls-1" d="m111.83,276.84c-10.89,11.48-20.31,24.11-29.39,37.03-2.78,4.07-5.61,8.11-8.24,12.28-.99,2.02.68,5.28.21,7.51-2.07,5.13-9.95,4.97-13.81,8.14-4.43,3.35-3.97,8.87-1.69,13.47,0,0-22.39-16.64-22.39-16.64,5.05.87,10.48-.29,12.41-5.5,1.92-4.61-.51-12.11,3.81-15.57,1.09-.6,2.58-.66,3.83-.83,1.45-.15,2.68-.46,3.42-1.14.69-.71,1.27-1.51,1.92-2.25,2.53-3.03,5-6.1,7.46-9.17,4.89-6.18,9.64-12.46,14.17-18.91,4.52-6.46,8.92-12.99,12.81-19.92l15.48,11.51h0Z"/>
    </g>
    <path class="cls-1" d="m59.04,355.34c-24.99,24.68-45.23,53.07-66.78,80.57-18.19,24.49-36.38,49.08-51.6,75.57-2.18,3.8-4.31,7.65-6.28,11.61,0,0-22.47-16.7-22.47-16.7,6.38-6.06,12.34-12.49,18.17-19.04,28.67-32.85,53.99-68.39,78.76-104.22,10-14.27,19.69-28.77,27.73-44.49l22.47,16.7h0Z"/>
  </g>
  <path class="cls-1" d="m295.48,291.41c-1.42,6.12-1.22,13.12-1.13,18.71.06,3.66.29,4.21.63,10.23.76,13.81.74,20.48-1.72,24.32-2.45,3.83-7.08,6.37-11.1,5.48-.49-.11-4.31-1.03-5.64-4.88-1.86-5.36,2.26-12.37,3.37-14.47.55-1.04,1.1-1.94,1.6-2.7,1.19-1.02,2.31-1.78,3.28-2.05,2.66-23.73,2.48-47.37,1.13-71.18,0-.04,0-.06,0-.1-3.54,23.26-9.18,44.47-18.76,65.94.81.95,1.4,2.73,1.82,4.85-.31,2.3-1.49,10.2-6.39,13.02-3.51,2.02-6.68.42-7.08.21-3.22-1.66-4.47-5.85-3.86-9.8.61-3.97,4.52-8.5,10.92-19.37,2.79-4.74,3.13-5.14,4.5-8.23,2.1-4.72,4.47-10.82,4.8-16.84.63-11.49-5.47-18.2-6.46-19.25,3.81,12.41,2.27,21.09,1.35,24.31-.95,3.33-3.18,7.27-8.25,14.15-8.48,11.53-9.66,10.69-12.38,14.55-1.14,1.61-8.83,11.25-8.32,20.66.4,7.37,6.25,11.94,12.41,13.32,1.63.37,4.59,1.11,8.19.03.35-.11.69-.23,1.03-.36-.27.47-.53.95-.81,1.41-.31.52-.6,1.06-.95,1.56-.39.49-1.12.83-1.96,1.13-.73.26-1.64.51-2.25.98-2.35,2.47-.32,6.23-1.19,8.91-.83,3.01-4.23,4.05-7.49,3.93,0,0,.02,0,.03.01-4.24,8.68-10.13,16.31-16.66,21.88-17.37,14.83-35.78,22.09-58.36,20.28-4.39-.35-9.32-1.66-14.32-3.42,6.21,6.53,9.41,9.85,16.03,16.58,1.68-.23,3.47-.42,5.27-.62,13.9-1.56,27.79-4.97,40.33-11.33,17.1-8.68,30.4-22.13,43.39-35.98-.04-.02-.06-.03-.1-.05-1.88-2.38-2.58-5.34-.06-7.68,2.18-2.18,7.15-3.07,7.88-6.37.06-1.38-1.31-3.03-.92-4.36.28-.68.56-1.36.84-2.04.16.46.35.91.56,1.35,1.59,3.22,4.34,4.84,5.86,5.78,5.75,3.53,15.27,4.99,22.91-.82,9.75-7.41,9.48-22.21,9.43-24.5-.12-5.47-1.16-5.6-4.53-21.6-2.01-9.56-3.09-14.47-2.95-18.24.13-3.66,1.19-12.72,8.09-24.69-1.39.78-9.28,5.69-11.99,17.36Z"/>
  <path class="cls-1" d="m203.97,327.34c-1.21,2.37-1.26,5.35-1.29,7.77-.02,1.58.1,1.82.28,4.49.4,6.11.57,9.2-.66,11-1.23,1.79-3.57,3.1-5.8,2.74-.27-.04-2.41-.43-3.4-2.34-1.39-2.66.58-6.1,1.15-7.09.28-.49.57-.9.84-1.25.67-.45,1.31-.77,1.88-.87l2.7-30.1v-.04s-13.7,26.93-13.7,26.93c.57.51,1.04,1.42,1.43,2.49h0c-.05,1.14-.21,5.1-2.8,6.61-1.86,1.09-3.87.28-4.12.17-2.09-.88-3.38-3.24-3.46-5.4-.09-2.18,1.7-4.7,5.29-9.67,1.56-2.16,1.8-2.3,2.62-3.65,1.25-2.07,2.8-4.62,3.03-7.27.45-5.05-4.02-8.87-4.79-9.52,2.89,6.13,1.76,9.8,1.17,11.19-.61,1.43-2.14,2.97-5.17,5.97-5.08,5.03-5.66,4.8-6.98,6.81-.55.84-4.08,6.21-2.17,11.92,1.49,4.47,5.58,6.93,9.16,7.38.95.12,2.66.37,4.5-.4.18-.07.35-.16.52-.25-.09.27-.18.54-.28.82-.11.3-.2.61-.33.91-.15.29-.49.53-.92.74-.36.2-.82.39-1.08.7-.93,1.56.68,3.58.63,5.22,0,1.82-1.53,2.8-3.18,3.12,0,0,0,0,.02,0-.66,5.75-1.96,11.32-3.39,16.85-3.48,13.86-7.16,27.69-12.18,41.08-1.03,2.69-2.13,5.35-3.39,7.94l8.83,2.54c.15-1.44.36-2.87.59-4.29,1.62-9.89,4.37-19.54,7.14-29.16,3.45-10.93,6.4-21.98,11.22-32.44,0,0-.06-.02-.06-.02-1.23-1.15-2-2.79-1.03-4.32.82-1.42,3.26-2.28,3.3-4.09-.11-.74-1-1.55-.93-2.28.08-.38.16-.75.25-1.13.13.24.27.47.43.69,1.15,1.63,2.73,2.33,3.6,2.73,3.28,1.52,8.05,1.61,11.69-1.39,4.65-3.82,4.51-10.25,4.49-11.25-.05-2.4-.67-2.51-2.29-9.47-.97-4.16-1.45-6.27-1.2-7.81.24-1.49,1.23-5.19,6.94-8.85-.99.13-6.81,1-9.11,5.52Z"/>
  <path class="cls-1" d="m79.42,143.21c-4.15.42-8.13,2.9-11.35,4.9-2.11,1.31-2.32,1.69-5.69,4.19-7.73,5.73-11.66,8.59-15.08,8.5-3.41-.09-7.13-2.08-8.56-5.33-.18-.4-1.49-3.54.19-6.48,2.33-4.1,8.55-4.43,10.33-4.52.88-.05,1.68-.02,2.37.04,1.17.5,2.14,1.08,2.75,1.74l42.04-22.05.06-.02-47.23,4.83c-.19,1.18-.98,2.58-2.07,4.01h0c-1.54.91-6.9,4.07-11.11,1.94-3.02-1.53-3.66-4.87-3.74-5.3-.61-3.5,1.4-7.21,4.19-9.17,2.8-1.97,7.66-1.75,17.27-1.25,4.19.22,4.58.42,7.05.35,3.79-.11,8.48-.24,12.17-2.18,7.05-3.71,8.3-12.86,8.49-14.42-5.64,9.03-11.44,10.66-13.77,11.07-2.41.42-5.73-.29-12.28-1.74-10.97-2.42-11.16-3.38-14.93-3.41-1.58-.01-11.67-.1-17.59,7.27-4.63,5.77-4.4,13.26-1.95,18.38.65,1.36,1.78,3.83,4.36,5.61.25.17.51.33.77.48-.44.11-.87.22-1.31.33-.5.11-.98.26-1.49.34-.51.05-1.12-.2-1.77-.58-.57-.31-1.21-.75-1.84-.83-2.85.1-4.15,3.95-6.36,5.27-2.4,1.56-5,.37-6.82-1.54,0,0,0,.01,0,.03-8.16,4.03-16.62,7.04-25.14,9.87-21.26,7.2-42.66,14.12-64.61,18.89-4.43.92-8.87,1.74-13.37,2.29l4.16,13.82c2.03-1.03,4.09-1.97,6.17-2.87,14.44-6.28,29.52-10.86,44.57-15.39,17.37-4.75,34.46-10.27,52.39-12.79,0,0-.03-.09-.03-.09.47-2.6,1.98-5.01,4.83-5.03,2.57-.12,5.78,2.37,8.21.88.89-.78,1.2-2.64,2.22-3.17.57-.22,1.13-.43,1.7-.64-.2.38-.39.76-.54,1.15-1.17,2.91-.75,5.59-.54,7.08.78,5.63,4.72,12,11.78,14.25,9,2.88,17.37-2.77,18.68-3.65,3.13-2.11,2.75-3.02,10.56-11.09,4.66-4.82,7.04-7.25,9.28-8.23,2.17-.95,7.9-2.79,17.6,1.62-1.02-1.2-7.12-8.14-15.04-7.34Z"/>
</svg>