<?xml version="1.0" encoding="UTF-8"?>
<svg id="Layer_1" data-name="Layer 1" xmlns="http://www.w3.org/2000/svg" viewBox="0 0 400 400">
  <defs>
    <style>
      .cls-1 {
        stroke-width: 0px;
      }
    </style>
  </defs>
  <path class="cls-1" d="m199.65-.74v-.26l-42.52,203.76c20.14,8.95,42.52,61.9,42.52,61.9v.26s22.38-52.95,42.52-61.9L199.65-.74Z"/>
  <path class="cls-1" d="m83.3,34.94c33.2,35,32.67,61.31,31.33,71.61-1.39,10.61-9.15,23.63-24.61,49.23-25.9,42.86-30.52,42.44-35.8,58.18-2.21,6.59-16.35,48.74,8.95,82.79,19.82,26.68,54.01,35.14,80.56,31.33,7.03-1.01,19.74-2.63,31.33-11.19,24.21-17.89,31.72-57.05,20.14-98.46l-29.09-17.9c1.96,3.58,4.55,9,6.38,15.94,2.01,7.6,9,34.02-6.38,48.96-11.03,10.71-27.04,9.18-29.09,8.95-16.69-1.85-30.73-14.95-35.8-29.09-5.09-14.19,2.5-34.27,17.9-73.84,6.71-17.24,8.13-18.62,11.19-29.09,4.68-16,10.47-35.79,6.71-53.7-7.18-34.18-46.88-50.94-53.7-53.7Z"/>
  <path class="cls-1" d="m316.28,40.66c-33.2,35-32.67,61.31-31.33,71.61,1.39,10.61,9.15,23.63,24.61,49.23,25.9,42.86,30.52,42.44,35.8,58.18,2.21,6.59,16.35,48.74-8.95,82.79-19.82,26.68-54.01,35.14-80.56,31.33-7.03-1.01-19.74-2.63-31.33-11.19-24.21-17.89-31.72-57.05-20.14-98.46l29.09-17.9c-1.96,3.58-4.55,9-6.38,15.94-2.01,7.6-9,34.02,6.38,48.96,11.03,10.71,27.04,9.18,29.09,8.95,16.69-1.85,30.73-14.95,35.8-29.09,5.09-14.19-2.5-34.27-17.9-73.84-6.71-17.24-8.13-18.62-11.19-29.09-4.68-16-10.47-35.79-6.71-53.7,7.18-34.18,46.88-50.94,53.7-53.7Z"/>
  <path class="cls-1" d="m222.55,187.1c-4.6,35.39-4.68,70.89-3.66,106.45.48,11.09.82,22.2,1.74,33.27,1,4.97,9,8.62,11.32,13.31,3.42,12.06-12.23,22.35-15.18,33.27-3.8,12.02,5.12,21.38,16.27,26.61,0,0-67.96,0-67.96,0,11.13-5.21,20.08-14.61,16.27-26.61-2.95-10.91-18.59-21.21-15.18-33.27,1.25-2.55,4.08-4.67,6.28-6.65,2.61-2.22,4.58-4.44,5.05-6.65.32-2.22.3-4.44.47-6.65.55-8.87.92-17.74,1.26-26.61.58-17.74.74-35.48.24-53.23-.55-17.74-1.43-35.48-3.9-53.23h46.99Z"/>
</svg>