<?xml version="1.0" encoding="UTF-8"?>
<svg id="Layer_1" data-name="Layer 1" xmlns="http://www.w3.org/2000/svg" viewBox="0 0 400 400">
  <defs>
    <style>
      .cls-1, .cls-2 {
        stroke-width: 0px;
      }

      .cls-2 {
        fill: #fff;
      }
    </style>
  </defs>
  <g>
    <path class="cls-1" d="M276.34,409c11.28.05,21.6.18,31.06.4-61.61-14.33-115.42-37.02-160.67-67.85-53.4-36.38-95.03-84.05-123.73-141.68C9.49,172.73.24,146-6.1,122l-2.36,47.24c4.76,16.8,8.46,30.45,8.46,30.45,0,0,41.68,208.31,276.34,209.31Z"/>
    <path class="cls-1" d="M400,397.86C36,325.72,0,0,0,0l-3.7,74.08c5.09,33.83,15.73,76.99,37.68,120.91,27.81,55.66,68.12,101.7,119.79,136.84,64.79,44.05,147.82,71.06,246.79,80.29l-1.11,11.95c-.13-.01-.27-.03-.4-.04-1.24,11.35-62.04,24.98-62.04,24.98l-58-25S38.79,432.06-9.6,209.03c-.23-1.08-.46-2.12-.69-3.18l-9.71,194.15,113.21,49s10.22.32,27.45.74c-48.2-16.03-112.65-63.82-129.68-174.15,0,0,36.61,120.7,153.32,155.05,25.68,7.56,34.33,15.26,31.82,20.25,167.18,2.84,505.73,2.82,223.89-53.04Z"/>
  </g>
  <g>
    <path class="cls-1" d="M274,162.64c-1.92-4.45-3.53-8.2-5.16-11.94-9.22-21.2-15.9-43.07-18.17-66.19-1.16-11.77.61-23.15,4-34.34,3.74-12.34,9.12-23.96,16.07-34.84.88-1.38,1.88-2.67,3.05-4.32,4.96,5.02,8.52,10.51,11.4,16.4,13.29,27.19,14.79,55.46,7.46,84.49-4.14,16.38-10.09,32.12-16.88,47.56-.38.86-.92,1.66-1.78,3.18ZM291.84,80.35c0-1.34,0-2.67,0-4.01.02-17.7-5.24-33.84-14.49-48.79-2.54-4.1-3.83-4.09-6.05.33-3.46,6.88-7.01,13.74-9.95,20.84-4,9.67-6.26,19.77-5.57,30.37,1.47,22.62,7.32,44.21,15.5,65.23.71,1.82,2.16,3.35,3.26,5.01,1.14-1.84,2.71-3.55,3.34-5.55,3.31-10.42,6.4-20.92,9.54-31.4,3.12-10.44,4.74-21.11,4.43-32.03Z"/>
    <path class="cls-1" d="M334.15,217.12c-16.38-.07-30.33-3.57-43.57-10.04-1.94-.95-3.04-1.75-1.09-3.87,8.34-9.07,17.26-17.48,27.59-24.27,15.07-9.9,31.52-10.07,48.38-6.24,9.01,2.05,17.25,5.96,25.1,10.82,2.53,1.57,2.68,2.74.96,5.21-14.32,20.64-34.86,28.17-57.37,28.38ZM331.63,211.26c17.74,0,35.87-6.77,47.13-16.67,1.48-1.3,2.58-3.04,3.77-4.64,1.61-2.16.89-3.66-1.44-4.7-4.59-2.03-9.01-4.56-13.76-6.07-16.56-5.25-32.43-4.04-46.8,6.5-6.38,4.68-12.45,9.8-18.59,14.8-2.73,2.22-2.61,3,.6,4.24,10.29,3.96,20.94,6.19,29.11,6.53Z"/>
    <path class="cls-1" d="M259.57,205.54c-1.97.99-3.51,1.81-5.09,2.56-18.37,8.73-37.72,11.19-57.52,7.39-17.58-3.37-31.91-12.49-41.72-27.86-.46-.73-.2-2.81.4-3.19,20.27-12.87,41.81-18.37,65.35-10.31,9.05,3.1,16.19,9.39,23.22,15.6,4.43,3.91,8.49,8.23,12.67,12.42.91.91,1.61,2.01,2.69,3.38ZM248.54,203.04c-3.36-2.77-5.77-4.89-8.32-6.82-6.59-4.96-12.73-10.84-19.97-14.55-18.87-9.66-37.26-5.87-54.85,4.23-.71.41-1.29,2.59-.87,3.17,1.88,2.57,3.81,5.31,6.32,7.19,21.72,16.33,45.45,18.74,70.69,9.69,2.04-.73,4.01-1.67,7-2.92Z"/>
    <path class="cls-1" d="M390.68,156.07c-3.8-3.06-7.38-6.47-11.45-9.12-9.1-5.93-19.16-6.13-29.39-3.78-15.85,3.65-29.48,11.47-41.17,22.65-7.42,7.09-14.6,14.45-21.94,21.64-1.78,1.75-3.85,4.51-6.45,2.24-2.32-2.02-1.08-5.1.37-7.4,5.64-8.95,12.75-16.67,20.63-23.66,15.38-13.64,33.08-22.09,53.8-23.95,14.4-1.29,25.56,3.7,33.33,15.96,1.05,1.65,1.81,3.49,2.71,5.24-.14.06-.29.12-.43.19Z"/>
    <path class="cls-1" d="M157.26,156.51c1.59-9.81,13.16-20.03,23.34-21.37,14.53-1.9,28.2,1.4,41.28,7.47,18.53,8.6,32.75,22.21,44.25,38.83.98,1.42,1.72,3.21,1.91,4.89.13,1.21-.52,3.15-1.43,3.64-.94.5-3,.08-3.89-.7-3.26-2.86-6.26-6.04-9.34-9.12-9.55-9.54-18.77-19.48-30.49-26.51-10.85-6.51-22.36-11.11-35.19-11.74-11.01-.54-19.97,3.81-27.61,11.36-1.02,1-1.88,2.16-2.82,3.24Z"/>
    <path class="cls-1" d="M267.61,14.23c-2.96,5.48-5.82,11.01-8.9,16.43-14.27,25.1-15.53,51.63-9.05,79.11,3.33,14.09,8.8,27.37,14.72,40.51.57,1.26.94,2.61,1.4,3.92-.26.18-.52.35-.78.53-.69-.7-1.53-1.31-2.05-2.12-11.23-17.67-20.12-36.31-23.06-57.3-2.95-21.05,1.12-40.94,11.13-59.5,3.78-7.02,8.81-13.38,13.35-19.99.63-.91,1.69-1.53,2.56-2.28.22.23.45.46.67.69Z"/>
    <path class="cls-2" d="M340.39,178.69c-8.89.03-15.63,6.62-15.64,15.28,0,8.81,6.64,15.42,15.47,15.36,8.8-.05,15.72-6.78,15.75-15.31.03-8.72-6.73-15.37-15.58-15.34Z"/>
    <path class="cls-1" d="M258.81,87.11c0-8.3,6.5-14.81,14.84-14.86,8.41-.04,15.17,6.72,15.05,15.07-.11,8.23-6.83,14.79-15.08,14.73-8.26-.06-14.81-6.67-14.81-14.94Z"/>
    <path class="cls-1" d="M340.39,178.69c8.85-.03,15.61,6.62,15.58,15.34-.03,8.53-6.95,15.26-15.75,15.31-8.83.05-15.48-6.55-15.47-15.36,0-8.67,6.75-15.25,15.64-15.28Z"/>
    <path class="cls-1" d="M222.56,194.05c-.02,8.76-6.46,15.24-15.17,15.28-9.01.03-15.98-6.69-15.95-15.38.02-8.77,6.75-15.35,15.6-15.27,8.92.09,15.54,6.65,15.52,15.37Z"/>
  </g>
</svg>