<?xml version="1.0" encoding="UTF-8"?>
<svg id="Layer_1" data-name="Layer 1" xmlns="http://www.w3.org/2000/svg" viewBox="0 0 400 400">
  <defs>
    <style>
      .cls-1 {
        stroke-width: 0px;
      }
    </style>
  </defs>
  <path class="cls-1" d="m83.39,271.96c1.2,4.98,2.51,9.86,3.94,14.63l181.96,78.96c2.73-2.99,5.39-6.15,7.96-9.47l-193.86-84.13Z"/>
  <path class="cls-1" d="m290.02,337.15c21.06-35.91,33.98-84.35,33.98-137.65C324,88.77,268.26-1,199.5-1s-124.5,89.77-124.5,200.5c0,15.74,1.13,31.06,3.26,45.75l211.76,91.9Zm-19.56-187.22c8.18,1.46,16.48,4.61,23.44,9.8-4.43,7.46-10.88,13.56-17.87,18.06-19.38,12.47-45.94,12.6-64.76-1.53,11.94-20.28,36.5-30.38,59.19-26.32ZM190.44,31.73c2.4-5.34,5-10.39,8.71-15.23,3.79,4.77,6.49,9.77,8.98,15.07,14.62,32.52,13.61,76.79-7.88,106.12-22.02-28.93-23.84-73.18-9.81-105.96Zm-21.94,125.62c6.84,4.42,13.13,10.45,17.43,17.8-6.71,5.24-14.79,8.52-22.78,10.09-22.12,4.41-46.17-5.61-57.65-25.52,18.03-14.25,44.07-14.66,63-2.38Z"/>
  <path class="cls-1" d="m92,300.69c21.61,59.41,61.66,99.31,107.5,99.31,22.32,0,43.26-9.47,61.38-26.03l-168.87-73.29Z"/>
</svg>