<?xml version="1.0" encoding="UTF-8"?>
<svg id="Layer_1" data-name="Layer 1" xmlns="http://www.w3.org/2000/svg" viewBox="0 0 400 400">
  <defs>
    <style>
      .cls-1 {
        stroke-width: 0px;
      }
    </style>
  </defs>
  <path class="cls-1" d="m187.42,272.19c-3.42-8.26-6.67-15.55-9.47-23.01-5.57-14.83-9.44-30.08-11.04-45.9-1.11-11.03.65-21.64,3.95-32.07,3.35-10.59,8.1-20.55,14.07-29.91.53-.83,1.11-1.63,1.71-2.41.16-.21.48-.3,1.47-.89,3.11,4.86,6.7,9.47,9.23,14.61,12.31,25.02,13.11,50.98,5.82,77.56-3.66,13.36-8.58,26.24-14.07,38.93-.34.78-.8,1.49-1.67,3.1Zm15.82-73.29c0-1.18,0-2.36,0-3.55-.06-15.65-4.79-29.89-13.02-43.06-1.97-3.15-3.23-3.16-4.91.18-3.19,6.34-6.46,12.67-9.17,19.22-3.49,8.46-5.4,17.3-4.79,26.57,1.31,19.89,6.46,38.87,13.6,57.37.63,1.64,1.84,3.07,2.77,4.6,1.08-1.65,2.6-3.17,3.18-4.99,2.92-9.11,5.61-18.3,8.35-27.46,2.82-9.42,4.3-19.04,3.97-28.89Z"/>
  <path class="cls-1" d="m239.08,320.14c-13.05-.07-25.36-3.2-37.07-8.91-1.89-.92-2.35-1.74-.76-3.47,7.09-7.73,14.75-14.82,23.39-20.78,12.45-8.59,26.27-9.41,40.59-6.76,9.12,1.69,17.48,5.38,25.33,10.32,2.06,1.3,2.28,2.29.85,4.4-11.65,17.16-30,25.29-52.33,25.2Zm-.67-5.16c15.67,0,31.7-6,41.65-14.74,1.23-1.09,2.18-2.52,3.18-3.85,1.44-1.91,1.16-3.39-1.16-4.41-4.06-1.77-7.97-4.03-12.17-5.36-14.75-4.66-28.86-3.54-41.6,5.93-5.54,4.11-10.84,8.55-16.19,12.91-2.39,1.94-2.27,2.65.57,3.75,9.09,3.5,18.51,5.47,25.73,5.77Z"/>
  <path class="cls-1" d="m174.66,309.89c-.53.33-.84.57-1.19.74-24.53,11.7-49.14,13.88-73.8.44-7.39-4.02-12.53-10.45-17.27-17.17-.37-.53-.08-2.27.44-2.59,18.81-11.84,38.7-16.88,60.15-8.04,5.09,2.1,9.7,5.72,13.98,9.29,5.59,4.66,10.65,9.96,15.9,15.01.61.59,1.05,1.35,1.79,2.32Zm-9.96-2.37c-2.58-2.14-4.69-4.01-6.92-5.7-5.81-4.4-11.23-9.6-17.62-12.91-16.76-8.66-33.1-5.29-48.74,3.71-.6.35-1.04,2.3-.65,2.84,1.67,2.27,3.4,4.66,5.62,6.33,20.26,15.23,42.2,16.46,65.27,7.46.87-.34,1.64-.92,3.04-1.73Z"/>
  <path class="cls-1" d="m290.57,266.19c-3.36-2.7-6.52-5.71-10.11-8.05-8.04-5.24-16.93-5.41-25.97-3.33-14,3.22-26.04,10.13-36.37,20-6.56,6.27-12.9,12.76-19.38,19.11-1.57,1.54-3.39,3.99-5.7,2.01-2.07-1.78-.96-4.51.32-6.53,4.98-7.91,11.26-14.73,18.22-20.9,13.59-12.05,29.22-19.52,47.52-21.17,12.71-1.14,22.58,3.25,29.45,14.07.93,1.46,1.61,3.08,2.4,4.63-.12.06-.25.11-.37.17Z"/>
  <path class="cls-1" d="m83.56,266.04c2.05-5.63,5.89-9.93,10.54-13.66,6.34-5.07,13.76-5.56,21.37-4.97,18.34,1.44,34.11,8.97,47.43,21.32,6.26,5.8,11.52,12.67,17.1,19.17,1.05,1.22,1.82,2.9,2.11,4.47.22,1.17-.19,3.27-.94,3.62-1.02.47-3,.1-3.91-.68-2.84-2.43-5.38-5.22-8.04-7.86-8.46-8.43-16.6-17.23-26.98-23.44-9.6-5.75-19.78-9.8-31.14-10.34-9.62-.45-17.47,3.34-24.17,9.92-.96.95-1.7,2.12-2.54,3.19-.28-.25-.56-.5-.84-.76Z"/>
  <path class="cls-1" d="m181.86,140.79c-1.71,3.15-3.36,6.34-5.14,9.46-5.65,9.9-10.51,20.11-12.55,31.45-3.31,18.42-1.13,36.42,4.77,53.97,2.95,8.77,6.81,17.23,10.24,25.85.4,1.02.65,2.09.97,3.14-.41.31-.81.62-1.22.92-.39-.79-.72-1.61-1.18-2.35-9.84-15.56-17.69-31.94-20.34-50.39-2.69-18.72.9-36.4,9.79-52.91,3.35-6.21,7.79-11.83,11.81-17.68.54-.79,1.48-1.31,2.23-1.96.21.17.42.33.63.5Z"/>
  <path class="cls-1" d="m174.06,205.19c.03-7.32,5.81-13.04,13.18-13.04,7.3,0,13.15,5.79,13.22,13.09.07,7.34-5.99,13.32-13.4,13.22-7.3-.09-13.03-5.94-13-13.27Z"/>
  <path class="cls-1" d="m246.24,286.2c7.81.01,13.76,5.96,13.66,13.64-.1,7.55-6.21,13.4-14.01,13.42-7.78.01-13.6-5.85-13.56-13.66.04-7.61,6.06-13.41,13.92-13.39Z"/>
  <path class="cls-1" d="m142.01,299.75c-.01,7.77-5.71,13.5-13.45,13.51-7.97.01-14.14-6.01-14.04-13.71.1-7.68,5.96-13.39,13.68-13.35,7.91.03,13.81,5.83,13.8,13.55Z"/>
</svg>