<?xml version="1.0" encoding="UTF-8"?>
<svg id="Layer_1" data-name="Layer 1" xmlns="http://www.w3.org/2000/svg" viewBox="0 0 400 400">
  <defs>
    <style>
      .cls-1, .cls-2, .cls-3, .cls-4, .cls-5, .cls-6, .cls-7, .cls-8, .cls-9, .cls-10, .cls-11, .cls-12 {
        stroke-width: 0px;
      }

      .cls-2 {
        fill: #090808;
      }

      .cls-3 {
        fill: #090908;
      }

      .cls-4 {
        fill: #070706;
      }

      .cls-5 {
        fill: #070707;
      }

      .cls-6 {
        fill: #080707;
      }

      .cls-7 {
        fill: #030303;
      }

      .cls-8 {
        fill: #010101;
      }

      .cls-9 {
        fill: #060605;
      }

      .cls-10 {
        fill: #060606;
      }

      .cls-11 {
        fill: #050505;
      }

      .cls-12 {
        fill: #020202;
      }
    </style>
  </defs>
  <path class="cls-8" d="m195.19,350.46c-2.8-1.72-3.22-4.04-3.26-6.44-.16-7.76.82-15.2,4.76-22.17,3.54-6.26,2.56-12.97.51-19.48-1.02-3.24-2.14-6.6-3.98-9.41-8.21-12.59-6.25-25.52-1.42-38.42,2.53-6.75,4.21-13.39,2.08-20.48-2.03-6.76-5.88-11.55-13.55-12.09-2.7-.19-5.17-1.08-6.1-4.03-.61-1.92-.06-3.6,1.66-4.69,2.67-1.69,5.89-1.54,7.73.5,6.69,7.4,14.45,14.14,18.29,23.61,2.38,5.85,1.08,12.14-1.89,17.52-8.16,14.75-6.72,29.38-.53,44.23,1.5,3.59,2.78,7.32,3.71,11.1,1.29,5.23,1.39,10.69-2.41,14.88-5.18,5.72-6.3,12.27-5.63,19.53.18,1.93.03,3.88.03,5.83Z"/>
  <path class="cls-12" d="m144.02,71.43c-.96,7.13-3.88,13.34-9.07,18.36-1.84,1.78-13.18-.1-14.8-2.18-.66-.85-.57-1.4.3-1.91.42-.24.83-.62,1.28-.67,10.76-1.19,13.61-8.97,15.09-18,.32-1.94.2-5.04,2.47-5.1,1.82-.05,2.88,2.76,3.7,4.74.63,1.52,1.12,3.05,1.03,4.77Z"/>
  <path class="cls-11" d="m253.85,48.45c-2.33-.17-2.61-1.7-2.18-3.16,1.62-5.64,4.63-10.35,9.75-13.46.94-.57,2.03-1.08,3.14-.1,1.05.93,1.19,2.47.48,3.06-4.06,3.36-6.44,7.84-8.89,12.33-.39.71-1.62.96-2.3,1.33Z"/>
  <path class="cls-10" d="m261.56,61.28c2.52-2.41,5.04-4.29,8.08-5.38,2.78-1,4.96.17,6.03,2.58,1.23,2.78-.96,4.07-3.14,5.03-4.05,1.79-7.43.3-10.97-2.23Z"/>
  <path class="cls-6" d="m230.11,29c.37.17.91.27,1.2.58,3.56,3.86,6.25,8.29,7.46,13.4.51,2.17-1.24,1.86-2.42,1.02-4.31-3.04-6.51-7.52-7.98-12.4-.36-1.18.39-2.15,1.74-2.61Z"/>
  <path class="cls-2" d="m236.92,91.11c.34-4.09,3.82-8.37,6.55-7.94,2.01.31,2.48,1.78,2.31,3.6-.28,3.02-4.9,8.12-7.15,7.77-2.05-.33-1.69-2.01-1.71-3.43Z"/>
  <path class="cls-5" d="m231.36,75c.02,2.51-7.39,7.45-9.5,6.43-1.36-.66-1.05-1.92-.63-2.95,1.33-3.32,3.46-5.95,7.28-6.14,1.45-.07,2.59,1.17,2.85,2.66Z"/>
  <path class="cls-9" d="m266.15,94.69c-4.46-2.82-6.03-6.73-7.78-10.49-.47-1-.94-2.26.28-3.05,1.11-.72,2.19-.18,3.06.66,3.45,3.32,5.24,7.24,4.44,12.88Z"/>
  <path class="cls-3" d="m227.81,62.39c-6.29-.24-9.83-3.45-13.19-6.91-.52-.54-1-1.34-.47-2.17.68-1.05,1.64-.77,2.55-.35,4.17,1.93,7.4,4.98,11.11,9.43Z"/>
  <path class="cls-1" d="m250.28,103.24c-1.28-.21-2.56-.56-3.85-.62-14.65-.73-29.34-.59-44.58-2.19-16.4,2.13-33.55,1.5-50.61,2.72-3.73.27-7.43.85-11.15,1.32-3.32.41-4.33,1.87-3.06,5.3,8.74,23.75,19.67,46.48,31.58,68.74,3.61,6.75,8.41,12.83,13.74,18.38,1.55,1.61,3.9,3.88,5.46.59,4.26-8.97,11.9-15.47,16.72-24.04,3.65-6.49,7.63-13.18,12.91-18.28,14.26-13.78,27.25-28.27,35.39-46.69,1.61-3.65.77-4.69-2.55-5.23Zm-42.67,54.39c-3.42,5.1-6.4,10.64-12.4,13.44-1.52.71-1.96,2.48-2.4,4.09-1.32,4.95-3.93,9.25-6.75,13.46-2.01,3-3.8,2.79-5.22-.27-3.99-8.57-9.26-16.41-13.91-24.6-7.22-12.72-14.6-25.38-19.27-39.4-.94-2.83-3.42-5.12-4.99-7.77-2.79-4.71-1.91-6.59,3.33-7.01,7.61-.6,15.28-.51,22.78-2.23.47-.11.99-.11,1.46-.02,20.04,4.01,40.26-1.45,60.34,1.09,4.62.59,9.35.45,13.71,2.22-11.95,16.38-25.67,30.59-36.66,46.99Z"/>
  <path class="cls-7" d="m248.6,55.78c-1.6-1.35-3.44-2.09-5.37-.94-3.77,2.26-6.59,5.35-6.98,9.98-.53,6.34,5.64,12.96,11.98,12.99,3.63.02,5.43-3.09,5.42-9.35-.02-4.89-1.12-9.36-5.05-12.68Zm-2.8,16.14c-3.09.07-4.68-2.18-4.77-5.03-.09-2.74,1.08-5.43,4.13-5.61,3.53-.21,4.32,2.68,4.59,5.14.05,3.22-.99,5.43-3.95,5.49Z"/>
  <path class="cls-4" d="m187.57,146.01c-.09,1.2-1.33,1.99-2.91,1.44-2.71-.93-6.72-.68-6.75-4.82-.02-2.45,1.01-5.27,4.14-5.71,1.93-.27,5.71,5.68,5.53,9.09Z"/>
</svg>