<?xml version="1.0" encoding="UTF-8"?>
<svg id="Layer_1" data-name="Layer 1" xmlns="http://www.w3.org/2000/svg" viewBox="0 0 400 400">
  <defs>
    <style>
      .cls-1 {
        fill: none;
      }

      .cls-1, .cls-2 {
        stroke-width: 0px;
      }
    </style>
  </defs>
  <g>
    <path class="cls-1" d="m64.83,213.49c0-27.81,0-55.61,0-83.42h210.17v188.26H64.83c0-34.57,0-69.14,0-103.7.17.22.32.47.53.66.76.7,1.47,1.82,2.34,1.97,2.25.39,4.58.47,6.88.43,1.18-.02,2.39-.42,3.51-.86,1.48-.58,2.48-2.38,2.01-3.57-1.15-2.94-2.58-5.69-5.07-7.79-1.94-1.64-4.12-1.59-5.65.21-1.15,1.36-2.02,2.97-2.92,4.52-.62,1.05-1.09,2.19-1.62,3.29Zm8.19,93.67c.08.12.16.25.24.37.4.03.81.07,1.21.07,1.64,0,3.28-.08,4.9.03,1.33.09,2.25-.49,3.27-1.22,1.01-.73,2.23-1.51,3.41-1.59,1.62-.11,3.02-.49,4.39-1.28,1.15-.66,2.34-1.24,3.5-1.89,2.41-1.35,4.87-2.58,6.94-4.49,1.46-1.35,3.09-2.56,4.79-3.61,1.59-.98,2.87-2.18,3.88-3.72.64-.97,1.4-1.87,2.06-2.83,1.08-1.59,2.49-3.07,3.12-4.83,1.47-4.06,2.07-8.31.5-12.52-1.18-3.15-2.25-6.4-3.95-9.26-2.88-4.84-6.39-9.3-9.32-14.12-1.47-2.41-2.41-5.2-3.28-7.91-.91-2.82-1.2-5.79-.44-8.72.64-2.44,1.22-4.94,2.28-7.2.88-1.87,2.15-3.77,3.74-5.04,2.5-1.99,5.4-3.47,8.16-5.13.4-.24.93-.36,1.4-.38,1.25-.05,2.51,0,3.76-.02.74-.01,1.08.25,1.13,1.05.18,2.87.44,5.74.65,8.61.32,4.46.63,8.92.94,13.38.22,3.06.41,6.12.67,9.18.23,2.68.53,5.35.8,8.02.43,4.25.76,8.51,1.34,12.74.55,4.03,1.32,8.03,2.1,12.03.51,2.62,1.15,5.22,1.88,7.79.2.69.94,1.67,1.5,1.71,1.38.11,3.09.75,4.02-1.07.03-.06.11-.13.18-.13,1.11-.1,1.34-1.08,1.82-1.81.25-.38.48-.77.76-1.13,1.75-2.25,3.53-4.47,5.25-6.74.52-.69.88-1.5,1.34-2.23,1.23-1.95,2.54-3.85,3.69-5.84,1.98-3.4,3.85-6.86,7.14-9.26,1.19-.87,2.22-1.96,3.43-2.81,1.29-.91,2.68-1.68,4.06-2.44.28-.16.8-.14,1.09.01,1.36.73,2.83,1.37,4,2.35,2.17,1.83,4.22,3.83,6.22,5.86,9.44,9.58,18.87,19.16,28.23,28.81,3.41,3.51,6.66,7.17,9.93,10.82,2.2,2.45,4.72,4.5,7.44,6.31.53.35,1.27.4,1.93.51.84.13,1.03-.46.84-1.06-.28-.93-.7-1.83-1.1-2.72-.57-1.27-1.18-2.52-1.76-3.78-.17-.38-.27-.8-.49-1.14-1.78-2.77-3.57-5.53-5.36-8.3-.83-1.28-1.66-2.56-2.62-4.03.66-.04,1.07-.07,1.47-.08,2.43,0,4.87.05,7.3-.03,1.31-.04,2.63-.26,3.92-.49,1.38-.24,2.74-.85,4.1-.84,3.03.03,5.99-.17,8.85-1.21.5-.18,1.01-.31,1.53-.43,2.59-.63,5.06-1.48,7.38-2.88,1.47-.89,3.19-1.35,4.8-2,1.01-.41,2.06-.77,3.04-1.24,2.92-1.41,5.16-3.7,7.57-5.78,1.47-1.26,3.19-2.22,4.97-3.43.29,1.38.52,2.48.74,3.58.81,4.08,1.37,8.24,2.5,12.23,1.12,3.96,2.8,7.76,4.26,11.62.11.29.5.68.74.67.34-.01.74-.3.98-.58.23-.27.4-.68.42-1.04.11-2.2.27-4.4.22-6.59-.06-2.99-.43-5.97-.43-8.96-.01-7.67.07-15.33.17-23,.04-2.99.28-5.98.36-8.98.07-2.53.03-5.05.05-7.58,0-.71-.36-.97-1.01-.88-1.32.18-2.46-.25-3.53-.94-.58-.37-1.08-.35-1.67.02-1.05.64-2.17,1.09-3.45.92-.65-.08-.98.24-1.04.89-.11,1.09-.26,2.18-.39,3.27-.17,1.49-.16,1.44-1.65,1.14-2.03-.41-4.07-.97-6.12-1.05-4.14-.16-8.29-.06-12.43-.04-.56,0-1.15.04-1.68.21-2.92.93-5.89,1.23-8.95,1.33-1.92.06-3.98.79-5.69,1.74-3.77,2.1-7.37,4.5-11,6.85-2.03,1.32-4.2,2.55-5.92,4.21-4.04,3.89-7.93,7.95-10.65,12.94-.16.3-.28.62-.42.93-.93-.97-1.59-1.5-2.16-2.12-.5-.55-.85-1.23-1.33-1.8-1.64-1.94-3.29-3.86-4.95-5.78-2.12-2.45-3.72-5.35-6.35-7.39-.77-.6-1.45-1.33-2.06-2.09-1.78-2.23-3.04-4.92-5.72-6.35-.15-.08-.21-.31-.32-.46-1.77-2.56-4.09-4.45-7.01-5.53-1.99-.74-4.01-1.39-6.04-2-.54-.16-1.22-.17-1.75,0-1.94.64-3.86,1.34-5.75,2.12-1.36.56-2.9,1.01-3.91,1.98-1.74,1.65-3.26,3.58-4.64,5.56-2.51,3.62-4.85,7.36-7.24,11.06-1.29,1.99-2.53,4.01-3.81,6-.47.74-.99,1.45-1.49,2.18-.3-.29-.33-.46-.34-.63-.23-4.54-.48-9.08-.67-13.63-.3-6.97-.63-13.94-.81-20.91-.1-3.86.08-7.73.18-11.6.1-3.9.16-7.81.41-11.71.41-6.27.96-12.52,1.45-18.78.22-2.79.42-5.58.68-8.37.39-4.06.81-8.12,1.24-12.18.23-2.14.56-4.27.78-6.4.37-3.62.87-7.26-1.29-10.59-.48-.75-.87-1.56-1.38-2.28-.47-.67-1.04-1.28-1.57-1.9-.8-.94-1.57-1.9-2.42-2.79-.94-.98-1.94-1.9-2.93-2.83-.13-.12-.31-.2-.46-.29-.55-.34-1.14-.63-1.65-1.03-.48-.38-3.25-.69-3.54-.22-.56.91-1.12,1.86-1.41,2.88-.3,1.07-.33,2.23-.4,3.36-.31,4.88-.82,9.76-.86,14.64-.12,14.93-.05,29.85-.06,44.78,0,1.84-.4,2.25-2.17,1.63-3.51-1.24-7.11-1.32-10.77-1.35-3.86-.03-7.39.8-10.74,2.74-3.2,1.86-5.82,4.42-7.85,7.32-2.01,2.86-3.71,6.12-4.08,9.77-.2,1.99-.57,4.06-.25,5.99.53,3.2,1.37,6.39,2.43,9.47,1.13,3.29,2.46,6.55,4.1,9.62,1.36,2.55,3.23,4.85,5,7.17,1.84,2.42,2.96,5.42,5.7,7.13.09.05.12.19.18.28,1.83,2.95,3.03,6.15,3.61,9.56.24,1.44.37,2.95.23,4.39-.29,3.1-1.82,5.7-3.76,8.08-2.87,3.52-6.16,6.57-10.06,8.92-1.97,1.19-4.02,2.23-5.99,3.42-2.87,1.73-5.44,3.94-8.78,4.9-.86.25-1.45,1.43-2.16,2.19Zm4.39-10.69c.45-.65.8-.95.89-1.31.27-1.09.6-2.2.61-3.3.11-12.57.17-25.13.25-37.7.02-3.15.09-6.3.14-9.45.11-6.45.22-12.9.35-19.35.01-.7-.24-1.05-.87-1.39-1.82-1-3.8-1.38-5.81-1.43-2.2-.06-4.39.29-6.34,1.45-.26.15-.5.53-.52.83-.15,2.04-.33,4.08-.31,6.12.04,3.94.16,7.88.32,11.82.18,4.35.43,8.7.67,13.04.06,1.05.2,2.1.33,3.14.27,2.05.56,4.1.84,6.14.33,2.34.57,4.7,1.03,7.01.7,3.46,1.49,6.9,2.37,10.32,1.03,3.98,2.22,7.92,4.34,11.5.47.79,1.02,1.54,1.71,2.57Z"/>
    <path class="cls-2" d="m64.83,213.49c.54-1.1,1.01-2.24,1.62-3.29.91-1.55,1.77-3.16,2.92-4.52,1.53-1.8,3.71-1.85,5.65-.21,2.49,2.1,3.92,4.85,5.07,7.79.46,1.18-.54,2.99-2.01,3.57-1.12.44-2.33.84-3.51.86-2.3.03-4.63-.04-6.88-.43-.87-.15-1.57-1.27-2.34-1.97-.21-.19-.35-.44-.53-.66,0-.38,0-.76,0-1.14Z"/>
    <path class="cls-2" d="m73.02,307.15c.71-.75,1.3-1.94,2.16-2.19,3.34-.96,5.91-3.17,8.78-4.9,1.97-1.18,4.02-2.23,5.99-3.42,3.9-2.35,7.19-5.4,10.06-8.92,1.94-2.38,3.47-4.97,3.76-8.08.14-1.45.01-2.95-.23-4.39-.58-3.41-1.78-6.61-3.61-9.56-.06-.1-.09-.23-.18-.28-2.74-1.71-3.86-4.71-5.7-7.13-1.76-2.32-3.63-4.62-5-7.17-1.64-3.07-2.96-6.33-4.1-9.62-1.06-3.08-1.9-6.26-2.43-9.47-.32-1.93.05-4,.25-5.99.37-3.65,2.07-6.91,4.08-9.77,2.03-2.89,4.65-5.46,7.85-7.32,3.35-1.95,6.88-2.77,10.74-2.74,3.66.03,7.26.12,10.77,1.35,1.77.62,2.17.22,2.17-1.63,0-14.93-.06-29.86.06-44.78.04-4.88.54-9.76.86-14.64.07-1.13.1-2.28.4-3.36.29-1.01.85-1.97,1.41-2.88.29-.47,3.05-.16,3.54.22.51.4,1.1.69,1.65,1.03.16.1.33.17.46.29.98.93,1.99,1.85,2.93,2.83.85.89,1.62,1.86,2.42,2.79.53.63,1.1,1.23,1.57,1.9.51.73.89,1.54,1.38,2.28,2.16,3.32,1.66,6.97,1.29,10.59-.22,2.14-.55,4.27-.78,6.4-.44,4.06-.86,8.12-1.24,12.18-.26,2.79-.46,5.58-.68,8.37-.49,6.26-1.04,12.52-1.45,18.78-.25,3.9-.31,7.81-.41,11.71-.1,3.87-.28,7.74-.18,11.6.17,6.97.51,13.94.81,20.91.19,4.54.44,9.09.67,13.63,0,.17.04.34.34.63.5-.72,1.01-1.44,1.49-2.18,1.28-1.99,2.53-4.01,3.81-6,2.39-3.7,4.73-7.44,7.24-11.06,1.37-1.98,2.9-3.9,4.64-5.56,1.02-.97,2.56-1.42,3.91-1.98,1.89-.78,3.81-1.47,5.75-2.12.53-.18,1.21-.17,1.75,0,2.03.61,4.05,1.26,6.04,2,2.92,1.08,5.24,2.97,7.01,5.53.11.16.17.38.32.46,2.68,1.43,3.94,4.12,5.72,6.35.61.76,1.29,1.5,2.06,2.09,2.62,2.04,4.22,4.93,6.35,7.39,1.66,1.92,3.32,3.84,4.95,5.78.48.57.83,1.25,1.33,1.8.56.62,1.22,1.16,2.16,2.12.14-.31.26-.63.42-.93,2.72-4.99,6.61-9.05,10.65-12.94,1.73-1.66,3.89-2.89,5.92-4.21,3.63-2.35,7.23-4.75,11-6.85,1.7-.95,3.76-1.68,5.69-1.74,3.07-.1,6.04-.4,8.95-1.33.53-.17,1.12-.21,1.68-.21,4.15-.02,8.3-.12,12.43.04,2.05.08,4.09.64,6.12,1.05,1.49.3,1.48.35,1.65-1.14.13-1.09.28-2.18.39-3.27.07-.66.39-.98,1.04-.89,1.28.17,2.41-.28,3.45-.92.59-.37,1.09-.39,1.67-.02,1.07.69,2.22,1.12,3.53.94.64-.09,1.01.17,1.01.88-.02,2.53.01,5.06-.05,7.58-.08,2.99-.32,5.98-.36,8.98-.1,7.67-.19,15.33-.17,23,0,2.99.37,5.97.43,8.96.05,2.19-.11,4.39-.22,6.59-.02.36-.19.76-.42,1.04-.24.28-.64.57-.98.58-.25,0-.63-.38-.74-.67-1.47-3.86-3.14-7.66-4.26-11.62-1.13-4-1.69-8.15-2.5-12.23-.22-1.1-.46-2.21-.74-3.58-1.77,1.21-3.5,2.16-4.97,3.43-2.42,2.08-4.66,4.37-7.57,5.78-.98.47-2.03.83-3.04,1.24-1.61.65-3.33,1.12-4.8,2-2.32,1.4-4.79,2.25-7.38,2.88-.51.12-1.03.25-1.53.43-2.87,1.04-5.83,1.24-8.85,1.21-1.36-.01-2.72.6-4.1.84-1.3.23-2.61.45-3.92.49-2.43.08-4.87.02-7.3.03-.4,0-.81.04-1.47.08.96,1.47,1.79,2.75,2.62,4.03,1.79,2.76,3.59,5.52,5.36,8.3.22.34.31.77.49,1.14.58,1.26,1.19,2.51,1.76,3.78.4.89.81,1.79,1.1,2.72.18.6,0,1.2-.84,1.06-.66-.11-1.4-.16-1.93-.51-2.72-1.81-5.24-3.86-7.44-6.31-3.27-3.65-6.52-7.31-9.93-10.82-9.37-9.65-18.8-19.23-28.23-28.81-2-2.03-4.05-4.02-6.22-5.86-1.17-.98-2.63-1.62-4-2.35-.29-.16-.81-.17-1.09-.01-1.38.76-2.77,1.53-4.06,2.44-1.2.85-2.23,1.94-3.43,2.81-3.29,2.4-5.17,5.85-7.14,9.26-1.15,1.99-2.47,3.89-3.69,5.84-.46.73-.82,1.54-1.34,2.23-1.72,2.27-3.5,4.49-5.25,6.74-.28.36-.5.75-.76,1.13-.48.72-.71,1.71-1.82,1.81-.06,0-.15.07-.18.13-.93,1.82-2.64,1.17-4.02,1.07-.55-.04-1.3-1.02-1.5-1.71-.74-2.57-1.37-5.17-1.88-7.79-.78-3.99-1.54-8-2.1-12.03-.58-4.23-.9-8.49-1.34-12.74-.27-2.67-.58-5.34-.8-8.02-.26-3.06-.45-6.12-.67-9.18-.32-4.46-.62-8.92-.94-13.38-.21-2.87-.47-5.74-.65-8.61-.05-.8-.38-1.06-1.13-1.05-1.25.02-2.51-.03-3.76.02-.47.02-1,.14-1.4.38-2.76,1.66-5.66,3.14-8.16,5.13-1.59,1.27-2.86,3.17-3.74,5.04-1.06,2.26-1.64,4.76-2.28,7.2-.76,2.93-.47,5.9.44,8.72.88,2.71,1.82,5.5,3.28,7.91,2.93,4.81,6.43,9.28,9.32,14.12,1.7,2.86,2.77,6.12,3.95,9.26,1.58,4.21.97,8.45-.5,12.52-.63,1.76-2.04,3.24-3.12,4.83-.66.96-1.42,1.86-2.06,2.83-1.02,1.54-2.3,2.74-3.88,3.72-1.7,1.05-3.32,2.26-4.79,3.61-2.07,1.91-4.53,3.14-6.94,4.49-1.16.65-2.35,1.23-3.5,1.89-1.37.79-2.77,1.17-4.39,1.28-1.17.08-2.39.87-3.41,1.59-1.02.73-1.94,1.31-3.27,1.22-1.63-.11-3.27-.02-4.9-.03-.4,0-.81-.05-1.21-.07-.08-.12-.16-.25-.24-.37Zm148.79-30.49c1.94,0,3.88.01,5.82,0,.45,0,.9-.09,1.33-.21,1.89-.55,3.76-1.21,5.67-1.69,2.26-.56,4.41-1.35,6.4-2.57.48-.3,1.01-.53,1.49-.83,1.91-1.16,4.03-2.09,5.66-3.56,2.99-2.68,5.8-5.56,7.88-9.07.59-1.01,1.11-2.01.66-3.2-.76-2-4.03-4.24-6.19-4.25-4.26-.01-8.53-.17-12.77.07-2.19.12-4.51.62-6.47,1.56-3.47,1.67-6.71,3.81-10.04,5.76-2.41,1.41-4.58,3.08-6.12,5.47-.88,1.36-1.82,2.69-2.83,3.95-1.15,1.44-1.43,3.32-.61,4.94.52,1.03,1.09,1.99,2.33,2.32.18.05.39.27.45.45.23.81.85.87,1.53.86,1.94,0,3.88,0,5.82,0Z"/>
    <path class="cls-2" d="m77.41,296.46c-.69-1.03-1.24-1.77-1.71-2.57-2.11-3.58-3.3-7.52-4.34-11.5-.89-3.41-1.68-6.86-2.37-10.32-.47-2.31-.7-4.67-1.03-7.01-.29-2.05-.58-4.09-.84-6.14-.14-1.05-.28-2.09-.33-3.14-.24-4.35-.49-8.69-.67-13.04-.16-3.94-.28-7.88-.32-11.82-.02-2.04.17-4.08.31-6.12.02-.29.27-.68.52-.83,1.95-1.15,4.14-1.5,6.34-1.45,2,.05,3.98.44,5.81,1.43.63.34.88.69.87,1.39-.13,6.45-.24,12.9-.35,19.35-.05,3.15-.12,6.3-.14,9.45-.08,12.57-.14,25.13-.25,37.7-.01,1.1-.35,2.21-.61,3.3-.09.36-.44.67-.89,1.31Z"/>
    <path class="cls-1" d="m221.81,276.67c-1.94,0-3.88,0-5.82,0-.68,0-1.3-.05-1.53-.86-.05-.18-.27-.4-.45-.45-1.23-.32-1.8-1.29-2.33-2.32-.82-1.62-.54-3.5.61-4.94,1.01-1.27,1.95-2.59,2.83-3.95,1.54-2.4,3.71-4.07,6.12-5.47,3.33-1.95,6.57-4.09,10.04-5.76,1.96-.94,4.28-1.44,6.47-1.56,4.25-.24,8.51-.08,12.77-.07,2.16,0,5.42,2.25,6.19,4.25.45,1.19-.06,2.19-.66,3.2-2.07,3.5-4.89,6.39-7.88,9.07-1.64,1.47-3.76,2.4-5.66,3.56-.49.3-1.01.53-1.49.83-1.98,1.23-4.13,2.01-6.4,2.57-1.91.47-3.78,1.13-5.67,1.69-.43.13-.89.21-1.33.21-1.94.02-3.88,0-5.82,0Z"/>
  </g>
  <path class="cls-2" d="m479.04,355.34c-24.99,24.68-45.23,53.07-66.78,80.57-18.19,24.49-36.38,49.08-51.6,75.57-2.18,3.8-4.31,7.65-6.28,11.61l-22.47-16.7c6.38-6.06,12.34-12.49,18.17-19.04,28.67-32.85,53.99-68.39,78.76-104.22,10-14.27,19.69-28.77,27.73-44.49l22.47,16.7h0Z"/>
</svg>