<?xml version="1.0" encoding="UTF-8"?>
<svg id="Layer_1" data-name="Layer 1" xmlns="http://www.w3.org/2000/svg" viewBox="0 0 400 400">
  <defs>
    <style>
      .cls-1 {
        stroke-width: 0px;
      }
    </style>
  </defs>
  <path class="cls-1" d="m128.73,219.05c-5.57,2.18-8.86,5.59-11.95,9.35-5.84,7.11-11.29,14.45-15.18,22.86-5.93,12.83-6.29,25.58-.03,38.4,2.36,4.82,4.69,9.67,6.82,14.59,4.38,10.14,1.35,17.91-8.75,22.59-7.06,3.27-14.7,4.42-22.3,5.53-7.07,1.03-14.18,1.75-21.29,2.45-3.68.36-7.36.14-10.77-1.6-3.8-1.94-4.18-4.19-1.43-7.32,3.31-3.77,8.17-4.16,12.43-5.87.79-.32,1.42-.08,1.81,1.22.39,1.29-.02,1.48-.82,1.92-3.1,1.7-6.26,3.33-7.91,7.17,8.25.21,16.1-.94,23.89-2.29,6.65-1.15,13.31-2.41,19.73-4.59,1.62-.55,3.23-1.2,4.72-2.02,6.38-3.55,8.5-9.07,6.28-16.01-.98-3.06-2.46-5.88-4.1-8.62-13.49-22.56-9.08-46.18,7.01-65.26,4.02-4.76,8.08-9.5,13.17-13.21,1.85-1.35,3.86-2.43,6.08-3.14,2.08-.67,4.12-1.09,5.79.64,1.69,1.76,2.15,3.82,1.45,6.34-.85,3.04-2.37,5.69-4.03,8.27-4.71,7.33-9.49,14.62-14.26,21.92-2.7,4.13-5.31,8.31-7.07,12.94-.95,2.49-2.3,1.98-3.64.6-1.42-1.47-1.36-3.19-.56-5.1,2.18-5.22,5.53-9.74,8.44-14.52,5.36-8.79,11.11-17.34,16.48-27.22Z"/>
  <path class="cls-1" d="m315.77,310.59c.77-1.73,2.58-.36,3.34-1.54-.17-2.26-3.44-1.52-3.68-3.96-.13-1.33-.92-3.06-2.77-3.06-1.84,0-2.34,1.66-2.77,3.07-1.18,3.87-4.35,3.12-7.13,3.06-2.72-.06-3.54-1.73-3.7-4.34-.21-3.5-3.12-4.75-5.72-2.54-2.98,2.54-6.6,3.41-10.27,4.71,0-2.03.15-3.82.45-5.64.53-3.28,1.22-6.8-.67-9.77-2.18-3.41-3.5-6.77-3.29-10.92.11-2.19-1.27-5.27-3.57-5.02-1.78.2-1.85,3.38-1.23,5.44,1.59,5.27.14,10.18-1.66,15.05-1.9,5.13-3.94,10.21-4.72,15.64-4.06-.48-8-1.04-10.91-4.31-1.98-2.22-4.07-3.64-6.13,1.26-.17-2.59.9-3.63,1.32-4.89.71-2.07,1.41-4.17-1.08-5.39-2.21-1.09-3.53.4-4.84,2.08-3.58,4.57-7.78,8.41-13.12,10.97-2.32,1.11-2.96.62-3.19-1.8-.58-6.13-.79-6.27-6.74-7.6-5.02-1.12-9.02.44-11.87,4.65-1.68,2.48-1.17,4.34,1.42,6.05,2.53,1.68,5.27,1.38,8.01,1.09,1.31-.14,2.71-.38,3.4.9.74,1.37.49,2.92-.43,4.25-.87,1.25-2.14,2.03-3.35,2.92-5.37,3.93-9.64,8.95-13.1,14.53-3.05,4.92-1.49,10.14,3.08,11.37,5.7,1.54,11.41,1.37,16.86-1.18,5.57-2.59,7.55-6.67,6.14-12.59-.71-2.99-1.7-5.92-2.46-8.9-.58-2.28-.84-4.65.9-6.55,3.65-3.96,7.99-7.1,12.51-10.55.08.93.11,1.38.16,1.82.27,2.67.55,5.48,3.44,6.62,2.69,1.06,4.63-.71,6.31-2.5,1.27-1.35,2.79-1.53,4.41-1.32,3.31.43,6.73.57,9.88,1.56,3.17.99,4.26-.48,5.11-2.87.81-2.25,1.52-4.54,2.48-7.41,1.07,3.33,2.42,5.46,5.24,6.67,3.64,1.56,6.47-.36,9.43-1.69,1.39-.62,1.99-.83,3.27.5,3.03,3.16,6.98,4.29,11.36,3.47,2.67-.5,5.21-.48,7.71.84,1.61.85,3.32,1.57,5.07,2.06,2.39.67,4.73.69,6.44-2.13-3.27-.76-6.42-.9-9.34-2.11Zm-99.49-1.68c2.39-3.07,5.28-3.37,8.96-3.21-2.44,3.6-5.49,3.29-8.96,3.21Zm-2.51,35.23c-1.99-.43-2.23-2.38-1.85-4.22.47-2.3,1.63-4.29,3.05-6.1,3.26-4.18,6.92-8.01,11-11.98,2.11,4.12,2.89,8.17,2.93,12.29.08,8.05-9.21,11.29-15.13,10.02Z"/>
  <path class="cls-1" d="m209.77,311.18c-2.4-.88-4.74-1.87-6.61-3.58-7.08-6.48-7.6-5.21-12.58,1.06-.05.07-.22.04-.46.08-.17-1.03.1-1.93.42-2.92,4.41-13.8,9.05-27.5,15.42-40.56,1.4-2.87,2.72-5.82,3.16-9.03.22-1.6.28-3.49-1.58-4.13-1.88-.64-2.9.79-3.6,2.37-.23.52-.48,1.03-.75,1.54-4.53,8.64-7.08,18.04-10.36,27.16-3.71,10.31-9.46,19.39-17.35,26.96-3.51,3.36-6.34,2.18-7.68-2.52-1.74-6.06.71-11.49,2.5-17.01,4.01-12.4,8.46-24.69,8.76-37.95.04-1.75.38-3.47-2.03-4.04-2.47-.58-3.6.66-4.41,2.71-2.81,7.11-5.49,14.25-7.58,21.61-2.59,9.18-2.63,18.6-2.73,28.7-3.13-2.39-5.78-3.6-8.62-1.05-4.52,4.05-8.16,8.65-9.66,14.72-.77,3.13-.95,6.13,1.99,8.04,2.89,1.88,5.7.24,7.89-1.58,4.25-3.55,7.75-7.77,9.46-13.67,2.91,3.82,4.9,9.02,10.86,7.64,4.99-1.16,7.27-5.58,10.03-9.78.66,2.15-.59,3.64-.52,5.33.08,1.94.1,3.69,2.15,4.64,2.03.93,3.99,1.05,5.8-.47.97-.82,2.01-1.58,2.85-2.51,2.48-2.75,5.04-3.41,8.55-1.53,2.89,1.54,6.23,2.28,9.85,2.33-.79-1.69-2.07-2.13-3.19-2.54Zm-60.62,8.26c-.08-6.01,4.5-12.88,10.55-15.5-1.54,6.92-4.78,11.97-10.55,15.5Z"/>
  <path class="cls-1" d="m137.05,312.99c.38-4.12-1.61-7.71-1.92-11.61-.25-3.23-2.4-4.67-5.12-2.9-4.55,2.95-8.73,6.41-11.32,11.34-1.12,2.13-1.52,4.39.3,6.4,1.83,2.02,4.18,2.85,6.86,2.19,1.31-.33,2.6-.92,3.75-1.64,1.99-1.25,3.56-1.75,5.48.43,1.26,1.44,3.46,1.7,5.98,1.19-1.64-1.96-4.2-3.19-4-5.4Zm-5.65-7.35c-.73,4.96-3.96,7.65-8.81,9.39.72-5.11,3.99-7.82,7.18-10.56.29-.25.88-.44,1.2-.32.63.25.51.93.43,1.49Z"/>
</svg>