<?xml version="1.0" encoding="UTF-8"?>
<svg id="Layer_1" data-name="Layer 1" xmlns="http://www.w3.org/2000/svg" viewBox="0 0 400 400">
  <defs>
    <style>
      .cls-1 {
        stroke-width: 0px;
      }
    </style>
  </defs>
  <path class="cls-1" d="m134.23,165.54c-6.63,2.6-10.55,6.65-14.23,11.13-6.95,8.47-13.43,17.2-18.07,27.21-7.06,15.27-7.48,30.45-.03,45.71,2.8,5.74,5.58,11.51,8.11,17.37,5.22,12.07,1.61,21.32-10.41,26.89-8.41,3.89-17.5,5.26-26.54,6.58-8.41,1.23-16.88,2.09-25.34,2.92-4.38.43-8.76.17-12.82-1.9-4.52-2.31-4.98-4.98-1.71-8.71,3.94-4.48,9.73-4.96,14.8-6.99.94-.38,1.69-.1,2.16,1.45.46,1.53-.02,1.77-.98,2.29-3.69,2.02-7.45,3.97-9.42,8.54,9.82.25,19.17-1.12,28.43-2.73,7.91-1.37,15.84-2.87,23.49-5.46,1.92-.65,3.84-1.42,5.61-2.41,7.6-4.22,10.12-10.8,7.47-19.06-1.17-3.64-2.93-7-4.88-10.27-16.06-26.85-10.81-54.97,8.34-77.69,4.78-5.67,9.62-11.31,15.67-15.73,2.2-1.61,4.59-2.89,7.23-3.74,2.48-.8,4.91-1.3,6.89.76,2.01,2.09,2.56,4.55,1.73,7.54-1.01,3.62-2.82,6.77-4.8,9.85-5.61,8.73-11.3,17.4-16.97,26.09-3.21,4.91-6.32,9.89-8.41,15.4-1.13,2.97-2.74,2.35-4.33.71-1.7-1.75-1.62-3.8-.67-6.08,2.59-6.21,6.58-11.6,10.05-17.28,6.38-10.46,13.22-20.64,19.62-32.41Z"/>
  <path class="cls-1" d="m356.88,274.49c.92-2.06,3.07-.42,3.98-1.83-.2-2.69-4.09-1.81-4.38-4.71-.16-1.58-1.09-3.65-3.29-3.64-2.2,0-2.79,1.97-3.3,3.65-1.4,4.6-5.18,3.71-8.48,3.64-3.24-.07-4.22-2.07-4.41-5.17-.25-4.16-3.72-5.66-6.81-3.03-3.55,3.02-7.86,4.05-12.22,5.6,0-2.41.18-4.54.53-6.72.64-3.91,1.45-8.1-.8-11.63-2.59-4.05-4.17-8.06-3.92-13,.13-2.6-1.51-6.28-4.25-5.97-2.12.24-2.2,4.03-1.46,6.48,1.9,6.28.17,12.12-1.98,17.92-2.26,6.11-4.69,12.16-5.62,18.62-4.84-.57-9.52-1.24-12.99-5.13-2.36-2.64-4.85-4.34-7.3,1.5-.2-3.09,1.07-4.33,1.57-5.82.84-2.47,1.67-4.96-1.28-6.42-2.63-1.3-4.2.48-5.76,2.48-4.26,5.44-9.26,10.01-15.62,13.06-2.76,1.32-3.53.74-3.8-2.14-.7-7.29-.94-7.46-8.02-9.05-5.98-1.34-10.73.53-14.13,5.54-2,2.95-1.39,5.16,1.69,7.21,3.01,2,6.28,1.65,9.54,1.3,1.56-.17,3.23-.45,4.05,1.07.88,1.63.58,3.48-.52,5.06-1.03,1.49-2.55,2.41-3.99,3.47-6.39,4.68-11.47,10.65-15.59,17.3-3.63,5.86-1.77,12.07,3.67,13.54,6.79,1.83,13.59,1.63,20.07-1.4,6.62-3.09,8.99-7.94,7.31-14.99-.85-3.56-2.02-7.04-2.93-10.59-.7-2.71-1-5.54,1.07-7.79,4.34-4.72,9.51-8.45,14.89-12.56.09,1.11.13,1.64.19,2.17.32,3.18.65,6.52,4.1,7.88,3.2,1.26,5.51-.85,7.51-2.98,1.51-1.61,3.32-1.83,5.25-1.58,3.94.51,8.01.68,11.76,1.85,3.77,1.18,5.07-.57,6.09-3.42.96-2.68,1.81-5.4,2.95-8.82,1.27,3.96,2.88,6.5,6.24,7.94,4.34,1.86,7.7-.43,11.22-2.01,1.65-.74,2.37-.99,3.89.6,3.6,3.76,8.31,5.11,13.52,4.14,3.18-.59,6.21-.58,9.18.99,1.91,1.01,3.96,1.86,6.04,2.45,2.85.8,5.63.82,7.67-2.53-3.9-.91-7.65-1.07-11.12-2.51Zm-118.43-2c2.85-3.66,6.29-4.01,10.67-3.82-2.91,4.28-6.53,3.91-10.67,3.82Zm-2.99,41.93c-2.37-.51-2.66-2.84-2.21-5.03.56-2.74,1.95-5.11,3.63-7.26,3.88-4.98,8.24-9.53,13.1-14.27,2.51,4.9,3.44,9.73,3.49,14.63.09,9.58-10.96,13.44-18.01,11.92Z"/>
  <path class="cls-1" d="m230.69,275.2c-2.85-1.05-5.64-2.22-7.87-4.26-8.43-7.71-9.04-6.2-14.97,1.26-.06.08-.26.05-.55.1-.21-1.23.12-2.3.5-3.48,5.24-16.43,10.77-32.74,18.36-48.28,1.67-3.42,3.24-6.93,3.76-10.75.26-1.9.33-4.16-1.88-4.91-2.24-.77-3.46.95-4.28,2.82-.27.62-.57,1.23-.89,1.83-5.4,10.29-8.43,21.48-12.33,32.33-4.42,12.28-11.26,23.08-20.65,32.09-4.17,4-7.54,2.59-9.15-3-2.07-7.21.85-13.68,2.97-20.25,4.77-14.76,10.08-29.39,10.43-45.17.05-2.08.45-4.13-2.41-4.81-2.94-.69-4.28.78-5.25,3.23-3.35,8.46-6.54,16.96-9.02,25.73-3.09,10.93-3.13,22.14-3.25,34.16-3.73-2.84-6.87-4.29-10.26-1.25-5.38,4.83-9.71,10.3-11.5,17.52-.92,3.73-1.13,7.3,2.37,9.57,3.44,2.24,6.79.29,9.39-1.88,5.06-4.23,9.23-9.25,11.26-16.27,3.47,4.55,5.83,10.74,12.93,9.09,5.94-1.38,8.66-6.64,11.94-11.65.79,2.56-.7,4.33-.61,6.34.1,2.31.12,4.4,2.56,5.52,2.41,1.11,4.75,1.25,6.91-.56,1.16-.97,2.39-1.88,3.4-2.99,2.95-3.27,6-4.06,10.18-1.82,3.44,1.84,7.41,2.72,11.73,2.77-.94-2.01-2.47-2.54-3.8-3.03Zm-72.16,9.83c-.1-7.15,5.36-15.34,12.55-18.45-1.83,8.23-5.68,14.25-12.55,18.45Z"/>
  <path class="cls-1" d="m144.13,277.35c.45-4.91-1.91-9.17-2.28-13.82-.3-3.85-2.86-5.56-6.1-3.45-5.41,3.51-10.39,7.64-13.48,13.5-1.33,2.53-1.81,5.23.35,7.62,2.18,2.41,4.98,3.4,8.16,2.61,1.56-.39,3.1-1.1,4.47-1.95,2.37-1.49,4.24-2.08,6.52.51,1.5,1.71,4.12,2.02,7.12,1.42-1.96-2.33-5-3.8-4.76-6.43Zm-6.73-8.75c-.87,5.9-4.71,9.1-10.49,11.17.86-6.09,4.75-9.3,8.55-12.57.35-.3,1.05-.53,1.42-.38.76.3.61,1.11.51,1.77Z"/>
</svg>